<?xml version="1.0" encoding="UTF-8"?>
<svg
  enable-background="new 0 0 512 512"
  version="1.1"
  viewBox="0 0 512 512"
  xmlns="http://www.w3.org/2000/svg"
>
  <g transform="matrix(.8 0 0 .8 51.2 51.2)">
    <g xmlns="http://www.w3.org/2000/svg">
      <path
        d="m225.77 0.616c-124.49 0-225.77 101.01-225.77 225.16s101.28 225.16 225.77 225.16 225.77-101.01 225.77-225.16-101.28-225.16-225.77-225.16zm0 413.3c-104.08 0-188.76-84.406-188.76-188.14 0-103.74 84.677-188.14 188.76-188.14s188.76 84.4 188.76 188.14c1e-3 103.74-84.676 188.14-188.76 188.14z"
        fill="#fff"
      />
    </g>
    <g xmlns="http://www.w3.org/2000/svg">
      <path
        d="m506.55 479.76-121.52-120.91c-7.248-7.205-18.963-7.174-26.174 0.068-7.205 7.248-7.174 18.962 0.068 26.174l121.52 120.91c3.615 3.59 8.328 5.385 13.053 5.385 4.756 0 9.506-1.82 13.121-5.453 7.205-7.249 7.174-18.963-0.068-26.174z"
        fill="#fff"
      />
    </g>
  </g>
</svg>
